<svg xmlns="http://www.w3.org/2000/svg" viewBox="0 0 77.24 77.24">
  <defs>
    <style>
      .cls-1 {
        fill: #fff;
      }

      .cls-2 {
        fill: #071d29;
      }

      .cls-3 {
        fill: #11b9b1;
      }

      .cls-4 {
        fill: #df544c;
      }
    </style>
  </defs>
  <g id="Layer_2" data-name="Layer 2">
    <g id="Layer_1-2" data-name="Layer 1">
      <g>
        <circle class="cls-1" cx="38.62" cy="38.62" r="38.62"/>
        <g>
          <g>
            <g>
              <path class="cls-2" d="M18.05,19.75A9.83,9.83,0,0,0,22.34,22a7.92,7.92,0,0,0,3.39.14A4.19,4.19,0,0,0,28.82,16c-.09-.21-.2-.41-.33-.67.3-.06.58-.13.86-.16a20.27,20.27,0,0,1,15.29,4.48,19.94,19.94,0,0,1,6.17,7.66A5.09,5.09,0,0,1,50,32.69c-.68-.68-1.33-1.39-2-2a13.91,13.91,0,0,0-7.06-3.56,12.56,12.56,0,0,0-6.48.65.68.68,0,0,1-.87-.2,5.08,5.08,0,0,0-4.26-1.89,5.79,5.79,0,0,0-3.62,1.75.81.81,0,0,1-.78.25,16.18,16.18,0,0,0-8.35,1c-.82.32-1.6.72-2.41,1.07a1.65,1.65,0,0,1-1.42.14A1.4,1.4,0,0,1,12.06,28a16.25,16.25,0,0,1,4.12-6.61C16.76,20.83,17.4,20.32,18.05,19.75Zm22.59.92a3.5,3.5,0,0,0-2.08-.09,1.67,1.67,0,0,0-1.09,2.47,3.66,3.66,0,0,0,1,1.18,4.8,4.8,0,0,0,3.34,1,1.72,1.72,0,0,0,1.55-1,1.69,1.69,0,0,0-.2-1.8A4.47,4.47,0,0,0,40.64,20.67Z"/>
              <path class="cls-3" d="M33.19,31.76a2.18,2.18,0,0,0,1.32-1.7c.05-.77.49-.91,1.05-1.06,4.86-1.32,8.92.06,12.32,3.64.33.35.64.73,1,1.14a10.82,10.82,0,0,1-4.72,1.27A18.18,18.18,0,0,1,33.31,31.9S33.25,31.82,33.19,31.76Z"/>
              <path class="cls-3" d="M11.1,25.74c-.2.69-.41,1.35-.58,2a2.8,2.8,0,0,0,1.62,3.47,3.11,3.11,0,0,0,1.66.15,9.54,9.54,0,0,0,1.82-.68c.27-.11.53-.25,1-.45-.11.93-.14,1.75-.3,2.55a9.36,9.36,0,0,1-.62,1.8,2,2,0,0,1-2.9,1,5.51,5.51,0,0,1-2.58-2.9.76.76,0,0,0-.47-.39,5.77,5.77,0,0,1-3.17-2A2,2,0,0,1,7,27.21,8.19,8.19,0,0,1,11.1,25.74Z"/>
              <path class="cls-3" d="M27,15.55c.22.77.45,1.5.61,2.24a2.12,2.12,0,0,1-1.28,2.52,5.47,5.47,0,0,1-4,.15,8.12,8.12,0,0,1-3-1.62A21.49,21.49,0,0,1,27,15.55Z"/>
              <path class="cls-2" d="M28,31.37c-.48-.32-1.09-.68-1.66-1.11a.76.76,0,0,1-.18-1,4.35,4.35,0,0,1,4.14-2,4.33,4.33,0,0,1,2.57,1.82.71.71,0,0,1-.12,1.06,5.09,5.09,0,0,1-3.46,1.36C28.92,31.49,28.55,31.43,28,31.37Z"/>
              <path class="cls-2" d="M36.72,14c-.73-.12-1.46-.29-2.2-.34-1.52-.08-3-.1-4.57-.12-.29,0-.47-.05-.61-.33s-.46-.82-.7-1.23a1.39,1.39,0,0,1,1.61-2.09,12.07,12.07,0,0,1,5.12,2.52c.52.45,1,1,1.44,1.49Z"/>
              <path class="cls-2" d="M38.8,22.18a2.71,2.71,0,0,1,3.14,1.32C41.08,24,39.12,23.22,38.8,22.18Z"/>
            </g>
            <path class="cls-4" d="M8.37,33.7a.84.84,0,0,0-.51-.43A6.37,6.37,0,0,1,6,32.52c-.37.52-.72,1.09-1.09,1.69L4,35.67l-.05.07,0,.06a2.92,2.92,0,0,0-.11,2.71A2.85,2.85,0,0,0,5.7,40.33h.06a5.75,5.75,0,0,0,1,.08c1.25,0,1.71-.39,3.57-3l.53-.74A6.05,6.05,0,0,1,8.37,33.7Z"/>
            <path class="cls-4" d="M58.87,34.54l-.13.07-2.26,1.23a.61.61,0,0,1-.79-.2l-1.45-2.12c-.35-.52-.71-1-1.1-1.51a4.74,4.74,0,0,1-.54,1.08,3.25,3.25,0,0,1-1.74,1.75,12,12,0,0,1-2.65,1c.12.15.24.31.35.47l1.67,2.39a.61.61,0,0,1-.16.85l-2.44,1.62h0a.61.61,0,0,0,.18,1.1l3.83.95c1.68.41,3.4.83,5.12,1.27a.6.6,0,0,0,.73-.43c.18-.7.36-1.4.54-2.12.11-.45.23-.89.34-1.33l1.39-5.43A.61.61,0,0,0,58.87,34.54Z"/>
          </g>
          <g>
            <g>
              <path class="cls-2" d="M59.19,57.49a9.79,9.79,0,0,0-4.29-2.28,7.92,7.92,0,0,0-3.39-.15,4.21,4.21,0,0,0-3.1,6.18l.34.67c-.31.06-.58.13-.87.16a20.29,20.29,0,0,1-15.29-4.48,20,20,0,0,1-6.16-7.66,5.07,5.07,0,0,1,.77-5.38c.68.68,1.33,1.38,2,2a13.92,13.92,0,0,0,7.05,3.56,12.59,12.59,0,0,0,6.49-.65.68.68,0,0,1,.87.2,5.08,5.08,0,0,0,4.26,1.89,5.77,5.77,0,0,0,3.62-1.76.82.82,0,0,1,.78-.24,16.18,16.18,0,0,0,8.35-1c.82-.32,1.6-.72,2.41-1.08a1.69,1.69,0,0,1,1.42-.13,1.4,1.4,0,0,1,.69,1.82,16.25,16.25,0,0,1-4.12,6.61C60.48,56.41,59.84,56.92,59.19,57.49ZM36.6,56.57a3.58,3.58,0,0,0,2.08.09,1.68,1.68,0,0,0,1.09-2.48,3.87,3.87,0,0,0-1-1.17,4.8,4.8,0,0,0-3.34-1,1.72,1.72,0,0,0-1.55,1,1.69,1.69,0,0,0,.2,1.8A4.47,4.47,0,0,0,36.6,56.57Z"/>
              <path class="cls-3" d="M44.05,45.48a2.21,2.21,0,0,0-1.33,1.7c0,.76-.48.91-1,1.06-4.86,1.32-8.92-.06-12.32-3.64-.33-.35-.64-.73-1-1.14a10.82,10.82,0,0,1,4.72-1.27,18.18,18.18,0,0,1,10.84,3.15A1,1,0,0,1,44.05,45.48Z"/>
              <path class="cls-3" d="M66.14,51.5c.19-.69.41-1.36.58-2A2.8,2.8,0,0,0,65.1,46a3.12,3.12,0,0,0-1.66-.15,8.91,8.91,0,0,0-1.82.68c-.27.11-.53.25-1,.45.11-.93.14-1.75.3-2.55a9.79,9.79,0,0,1,.61-1.8,2,2,0,0,1,2.91-1,5.59,5.59,0,0,1,2.58,2.9.72.72,0,0,0,.46.39,5.76,5.76,0,0,1,3.18,2A2,2,0,0,1,70.24,50,8.19,8.19,0,0,1,66.14,51.5Z"/>
              <path class="cls-3" d="M50.19,61.69c-.21-.77-.44-1.5-.6-2.25a2.11,2.11,0,0,1,1.28-2.51,5.42,5.42,0,0,1,4-.15,8.09,8.09,0,0,1,3,1.61A21.31,21.31,0,0,1,50.19,61.69Z"/>
              <path class="cls-2" d="M49.23,45.87c.48.32,1.09.68,1.66,1.11a.77.77,0,0,1,.18,1,4.37,4.37,0,0,1-4.14,2,4.35,4.35,0,0,1-2.57-1.83.7.7,0,0,1,.11-1,5.13,5.13,0,0,1,3.47-1.36C48.31,45.75,48.68,45.81,49.23,45.87Z"/>
              <path class="cls-2" d="M40.51,63.2a21,21,0,0,0,2.21.33c1.52.09,3,.11,4.57.13.29,0,.47.05.61.33s.46.82.7,1.23A1.39,1.39,0,0,1,47,67.31a12.07,12.07,0,0,1-5.12-2.52c-.52-.45-1-1-1.44-1.49Z"/>
              <path class="cls-2" d="M38.44,55.06a2.71,2.71,0,0,1-3.14-1.32C36.16,53.21,38.11,54,38.44,55.06Z"/>
            </g>
            <path class="cls-4" d="M68.87,43.53a.83.83,0,0,0,.51.44,6.1,6.1,0,0,1,1.86.75c.37-.52.72-1.09,1.09-1.69s.59-1,.92-1.46l0-.07,0-.06a3.22,3.22,0,0,0-1.81-4.53h0a5.83,5.83,0,0,0-1-.09c-1.25,0-1.72.4-3.57,3l-.53.74A6.07,6.07,0,0,1,68.87,43.53Z"/>
            <path class="cls-4" d="M18.37,42.7l.13-.08,2.26-1.22a.62.62,0,0,1,.79.19L23,43.72c.35.52.72,1,1.11,1.51a4.37,4.37,0,0,1,.54-1.08,3.3,3.3,0,0,1,1.74-1.76,12.12,12.12,0,0,1,2.64-1l-.34-.47L27,38.5a.62.62,0,0,1,.16-.86L29.61,36h0a.6.6,0,0,0-.19-1.09l-3.82-1c-1.68-.41-3.4-.83-5.12-1.27a.6.6,0,0,0-.73.43c-.18.7-.36,1.4-.54,2.12-.12.44-.23.89-.34,1.33L17.49,42A.61.61,0,0,0,18.37,42.7Z"/>
          </g>
        </g>
      </g>
    </g>
  </g>
</svg>
